<svg xmlns="http://www.w3.org/2000/svg" viewBox="0 0 512 512" width="512" height="512">
    <defs>
        <radialGradient id="glow" cx="50%" cy="50%" r="50%">
            <stop offset="0%" stop-color="#64ffb4" stop-opacity="0.20" />
            <stop offset="100%" stop-color="#030407" stop-opacity="0" />
        </radialGradient>
        
        <pattern id="grid" width="32" height="32" patternUnits="userSpaceOnUse">
            <circle cx="16" cy="16" r="1.5" fill="#ffffff" opacity="0.04" />
        </pattern>
    </defs>

    <rect width="512" height="512" fill="#030407" />
    <rect width="512" height="512" fill="url(#grid)" />
    <rect width="512" height="512" fill="url(#glow)" />

    <rect x="24" y="24" width="464" height="464" fill="none" stroke="#64ffb4" stroke-width="1" opacity="0.15" />
    
    <path d="M 24,56 L 24,24 L 56,24" fill="none" stroke="#64ffb4" stroke-width="3" opacity="0.6" />
    <path d="M 488,56 L 488,24 L 456,24" fill="none" stroke="#64ffb4" stroke-width="3" opacity="0.6" />
    <path d="M 24,456 L 24,488 L 56,488" fill="none" stroke="#64ffb4" stroke-width="3" opacity="0.6" />
    <path d="M 488,456 L 488,488 L 456,488" fill="none" stroke="#64ffb4" stroke-width="3" opacity="0.6" />

    <g transform="translate(256, 256)">
        
        <line x1="0" y1="0" x2="-80" y2="-100" stroke="#64ffb4" stroke-width="3" opacity="0.8" />
        <line x1="0" y1="0" x2="100" y2="-70" stroke="#ffffff" stroke-width="2" opacity="0.25" />
        <line x1="0" y1="0" x2="70" y2="110" stroke="#64ffb4" stroke-width="3" opacity="0.8" />
        <line x1="0" y1="0" x2="-110" y2="60" stroke="#ffffff" stroke-width="2" opacity="0.25" />

        <line x1="-80" y1="-100" x2="-30" y2="-170" stroke="#ffffff" stroke-width="2" opacity="0.2" />
        <line x1="100" y1="-70" x2="150" y2="-10" stroke="#64ffb4" stroke-width="2" opacity="0.6" />
        <line x1="70" y1="110" x2="-10" y2="160" stroke="#ffffff" stroke-width="2" opacity="0.2" />
        <line x1="-110" y1="60" x2="-160" y2="-10" stroke="#64ffb4" stroke-width="2" opacity="0.6" />
        
        <line x1="100" y1="-70" x2="150" y2="60" stroke="#ffffff" stroke-width="1.5" opacity="0.15" />
        <line x1="150" y1="-10" x2="150" y2="60" stroke="#ffffff" stroke-width="1.5" opacity="0.15" />

        <circle cx="-30" cy="-170" r="7" fill="#ffffff" opacity="0.85" />
        <circle cx="150" cy="-10" r="9" fill="#ffffff" opacity="0.85" />
        <circle cx="-10" cy="160" r="7" fill="#ffffff" opacity="0.85" />
        <circle cx="-160" cy="-10" r="9" fill="#ffffff" opacity="0.85" />
        <circle cx="150" cy="60" r="5" fill="#ffffff" opacity="0.5" />

        <circle cx="-80" cy="-100" r="18" fill="#030407" stroke="#64ffb4" stroke-width="4" />
        <circle cx="100" cy="-70" r="12" fill="#ffffff" opacity="0.95" />
        <circle cx="70" cy="110" r="20" fill="#030407" stroke="#64ffb4" stroke-width="4" />
        <circle cx="-110" cy="60" r="14" fill="#ffffff" opacity="0.95" />

        <circle cx="0" cy="0" r="36" fill="#030407" stroke="#ffffff" stroke-width="3" opacity="0.3"/>
        <circle cx="0" cy="0" r="14" fill="#64ffb4" />
    </g>
</svg>
